<?xml version="1.0" encoding="UTF-8" standalone="no"?>
<svg
   viewBox="0 0 52 52"
   version="1.1"
   id="svg1"
   sodipodi:docname="mobile.svg"
   width="52"
   height="52"
   inkscape:version="1.4 (e7c3feb100, 2024-10-09)"
   xmlns:inkscape="http://www.inkscape.org/namespaces/inkscape"
   xmlns:sodipodi="http://sodipodi.sourceforge.net/DTD/sodipodi-0.dtd"
   xmlns="http://www.w3.org/2000/svg"
   xmlns:svg="http://www.w3.org/2000/svg">
  <defs
     id="defs1" />
  <sodipodi:namedview
     id="namedview1"
     pagecolor="#ffffff"
     bordercolor="#000000"
     borderopacity="0.25"
     inkscape:showpageshadow="2"
     inkscape:pageopacity="0.0"
     inkscape:pagecheckerboard="0"
     inkscape:deskcolor="#d1d1d1"
     inkscape:zoom="15.71875"
     inkscape:cx="6.1709742"
     inkscape:cy="48.73161"
     inkscape:window-width="3840"
     inkscape:window-height="2091"
     inkscape:window-x="0"
     inkscape:window-y="32"
     inkscape:window-maximized="1"
     inkscape:current-layer="svg1" />
  <path
     fill="#1a202c"
     stroke="none"
     stroke-width="3"
     stroke-linejoin="round"
     stroke-linecap="butt"
     d="m 1.5,9.636646 v 0 C 1.5,5.1429007 5.1429005,1.5 9.636646,1.5 H 42.74918 v 0 c 2.157974,0 4.227562,0.8572514 5.753479,2.3831685 1.525917,1.5259168 2.383167,3.5955045 2.383167,5.753477 V 42.18225 c 0,4.493748 -3.642898,8.136646 -8.136646,8.136646 H 9.6366463 c -4.4937453,0 -8.136646,-3.642899 -8.136646,-8.136646 z"
     fill-rule="evenodd"
     id="path2" />

  <path
     style="fill:#ffffff;stroke:#000000;stroke-width:0.0942123;stroke-linejoin:round;paint-order:stroke fill markers"
     d="m 16.862342,51.997696 c -1.075084,-0.112511 -2.05623,-0.629494 -2.81195,-1.481673 -0.606442,-0.683846 -0.99723,-1.478324 -1.182546,-2.404124 -0.08256,-0.412478 -0.08652,-1.42271 -0.08652,-22.087902 0,-20.7683452 0.0036,-21.6736757 0.08766,-22.0954943 0.180391,-0.9051494 0.561892,-1.6857033 1.155474,-2.3641094 0.788682,-0.9013869 1.740115,-1.3970751 2.911572,-1.51690371 0.68286,-0.06984992 21.106949,-0.06937781 21.839706,5.0492e-4 1.918467,0.18296326 3.419838,1.52073859 4.010516,3.57351399 l 0.110671,0.384613 0.01239,21.8269715 c 0.01204,21.18475 0.0097,21.840978 -0.07786,22.302998 C 42.429956,50.253426 40.799243,51.807018 38.77573,52 38.133884,52.06121 17.448499,52.05903 16.862339,51.9977 Z m 11.793312,-3.290627 c 0.583152,-0.159722 1.234131,-0.620988 1.597899,-1.132223 0.22752,-0.319756 0.484274,-0.890638 0.56959,-1.26646 0.09121,-0.4018 0.07768,-1.248045 -0.02601,-1.626906 -0.240727,-0.879528 -0.856487,-1.688344 -1.571582,-2.064318 -0.931559,-0.489775 -2.043048,-0.449248 -2.919402,0.106451 -1.690193,1.071756 -1.994065,3.625097 -0.608796,5.115506 0.798161,0.858739 1.857352,1.169501 2.958301,0.86795 z m 9.000288,-9.706039 c 0.263827,-0.08398 0.661726,-0.512649 0.739675,-0.79688 0.04531,-0.165215 0.05841,-3.81095 0.05841,-16.254639 0,-14.2190157 -0.0083,-16.0669755 -0.07299,-16.264525 -0.10786,-0.3293604 -0.277898,-0.5391612 -0.559502,-0.690343 l -0.250929,-0.1347142 -9.70489,4.999e-4 -9.704891,4.999e-4 -0.240157,0.1220107 C 17.634484,5.1283348 17.504037,5.2714138 17.372345,5.5843601 17.274393,5.81713 17.274356,5.823202 17.273302,21.964711 l -0.0011,16.147494 0.125043,0.270336 c 0.135947,0.29391 0.349152,0.499086 0.631352,0.607583 0.253156,0.09733 19.322502,0.107919 19.627299,0.01089 z"
     id="path4" />
</svg>
