<?xml version="1.0" encoding="UTF-8" standalone="no"?>
<svg
   height="510"
   preserveAspectRatio="xMidYMid"
   viewBox="0 0 510 510"
   width="510"
   version="1.1"
   id="svg2"
   sodipodi:docname="router.svg"
   inkscape:version="1.4 (e7c3feb100, 2024-10-09)"
   xmlns:inkscape="http://www.inkscape.org/namespaces/inkscape"
   xmlns:sodipodi="http://sodipodi.sourceforge.net/DTD/sodipodi-0.dtd"
   xmlns="http://www.w3.org/2000/svg"
   xmlns:svg="http://www.w3.org/2000/svg">
  <sodipodi:namedview
     id="namedview2"
     pagecolor="#ffffff"
     bordercolor="#000000"
     borderopacity="0.25"
     inkscape:showpageshadow="2"
     inkscape:pageopacity="0.0"
     inkscape:pagecheckerboard="0"
     inkscape:deskcolor="#d1d1d1"
     showgrid="true"
     inkscape:zoom="1.972549"
     inkscape:cx="255"
     inkscape:cy="255"
     inkscape:window-width="3840"
     inkscape:window-height="2091"
     inkscape:window-x="0"
     inkscape:window-y="32"
     inkscape:window-maximized="1"
     inkscape:current-layer="svg2">
    <inkscape:grid
       id="grid2"
       units="px"
       originx="0"
       originy="0"
       spacingx="2"
       spacingy="2"
       empcolor="#0099e5"
       empopacity="0.30196078"
       color="#0099e5"
       opacity="0.14901961"
       empspacing="5"
       enabled="true"
       visible="true" />
  </sodipodi:namedview>
  <defs
     id="defs2">
    <linearGradient
       id="swatch3"
       inkscape:swatch="solid">
      <stop
         style="stop-color:#ffffff;stop-opacity:1;"
         offset="0"
         id="stop3" />
    </linearGradient>
  </defs>
  <path
     d="m 27.74406,-0.18562 c -22.719654,0 -34.093581,27.467033 -18.030307,43.530307 16.063274,16.063274 43.530307,4.689347 43.530307,-18.030307 0,-14.083261 -11.41674,-25.5 -25.5,-25.5 z m -6.59812,13.14844 c 0.497667,-0.496459 1.303263,-0.496459 1.80093,0 l 3.52219,3.49031 V 6.60375 c 6.73e-4,-1.699326 2.550673,-1.699326 2.55,0 v 9.84938 l 3.50625,-3.49031 c 1.211263,-1.204958 3.016518,0.616265 1.80094,1.81687 l -6.58219,6.51844 -6.59812,-6.53438 c -0.496459,-0.497667 -0.496459,-1.303263 0,-1.80093 z m -5.64188,18.83812 c 0.702959,0 -1.303272,0.496465 -1.80094,0 l -6.67781,-6.48656 6.67781,-6.51844 c 1.210843,-1.310625 3.116852,0.629426 1.785,1.81688 l -3.50625,3.41062 h 9.99282 c 1.699047,9.52e-4 1.699047,2.550952 0,2.55 H 11.98187 L 15.48812,30 c 0.500886,0.493273 -0.687098,1.80094 0.0159,1.80094 z M 34.34219,37.65 c -0.497668,0.496465 -1.303272,0.496465 -1.80094,0 l -3.52219,-3.47437 v 9.83344 c -6.73e-4,1.699326 -2.550673,1.699326 -2.55,0 v -9.83344 l -3.50625,3.49031 c -1.211258,1.203503 -3.015063,-0.616257 -1.80094,-1.81687 l 6.58219,-6.53438 6.59813,6.53438 c 0.496459,0.497667 0.496459,1.303263 0,1.80093 z M 41.785,31.81688 C 40.57416,33.127505 38.668148,31.187454 40,30 l 3.50625,-3.42656 h -9.97688 c -1.699047,-9.52e-4 -1.699047,-2.550952 0,-2.55 h 9.99282 l -3.50625,-3.41062 c -1.331852,-1.187454 0.57416,-3.127505 1.785,-1.81688 l 6.66187,6.51844 z"
     id="path2"
     fill="#ffffff"
     style="fill:#808080;stroke-width:1" />
  <ellipse
     style="fill:none;stroke:none;"
     id="path3"
     cx="228"
     cy="25.314381"
     rx="25.424789"
     ry="24.869499" />
</svg>
