<?xml version="1.0" encoding="UTF-8" standalone="no"?>
<svg
   height="52"
   width="52"
   version="1.1"
   id="svg1"
   sodipodi:docname="tv.svg"
   inkscape:version="1.4 (e7c3feb100, 2024-10-09)"
   xmlns:inkscape="http://www.inkscape.org/namespaces/inkscape"
   xmlns:sodipodi="http://sodipodi.sourceforge.net/DTD/sodipodi-0.dtd"
   xmlns="http://www.w3.org/2000/svg"
   xmlns:svg="http://www.w3.org/2000/svg">
  <defs
     id="defs1" />
  <sodipodi:namedview
     id="namedview1"
     pagecolor="#ffffff"
     bordercolor="#000000"
     borderopacity="0.25"
     inkscape:showpageshadow="2"
     inkscape:pageopacity="0.0"
     inkscape:pagecheckerboard="0"
     inkscape:deskcolor="#d1d1d1"
     inkscape:zoom="19.346154"
     inkscape:cx="26"
     inkscape:cy="26"
     inkscape:window-width="3840"
     inkscape:window-height="2091"
     inkscape:window-x="0"
     inkscape:window-y="32"
     inkscape:window-maximized="1"
     inkscape:current-layer="svg1" />
  <path
     fill="#1a202c"
     stroke="white"
     stroke-width="3"
     stroke-linejoin="round"
     stroke-linecap="butt"
     d="m 1.5,9.636646 v 0 C 1.5,5.1429007 5.1429005,1.5 9.636646,1.5 H 42.74918 v 0 c 2.157974,0 4.227562,0.8572514 5.753479,2.3831685 1.525917,1.5259168 2.383167,3.5955045 2.383167,5.753477 V 42.18225 c 0,4.493748 -3.642898,8.136646 -8.136646,8.136646 H 9.6366463 c -4.4937453,0 -8.136646,-3.642899 -8.136646,-8.136646 z"
     fill-rule="evenodd"
     id="path2" />
  <path
     fill="#ffffff"
     d="M 3.25,4 C 1.4495,4 0,5.4495 0,7.25 v 32.5 C 0,41.5505 1.4495,43 3.25,43 H 6.4873048 L 0,49.487305 H 6.5 L 12.987305,43 h 26.02539 L 45.5,49.487305 H 52 L 45.512695,43 H 48.75 C 50.5505,43 52,41.5505 52,39.75 V 7.25 C 52,5.4495 50.5505,4 48.75,4 Z m 1.625,3.2373049 h 42.25 c 0,0 1.625,0 1.625,1.6249999 V 38.112306 c 0,1.625 -1.625,1.625 -1.625,1.625 H 4.875 c -1.625,0 -1.625,-1.625 -1.625,-1.625 V 8.8623048 c 0,0 0,-1.625 1.625,-1.6249999 z"
     id="path1"
     style="stroke-width:3.25" />
</svg>
