<svg height="512" viewBox="0 0 512 512" width="512" xmlns="http://www.w3.org/2000/svg">
<path d="m235.562667 288c0 17.672533-14.336 32-32 32s-32-14.327467-32-32 14.336-32 32-32 32 14.327467 32 32zm-114.922667-82.926933 30.144 30.1568c13.525333-13.521067 32.192-21.896534 52.778667-21.896534 20.586666 0 39.253333 8.375467 52.778666 21.896534l30.144-30.154667c-21.248-21.248-50.581333-34.408533-82.922666-34.408533-32.341334 0-61.674667 13.160533-82.922667 34.4064zm-60.3093333-60.3136 30.144 30.154666c28.9706663-28.970666 68.9706663-46.914133 113.0880003-46.914133 44.117333 0 84.117333 17.943467 113.088 46.914133l30.144-30.154666c-36.693334-36.6976-87.36-59.4261337-143.232-59.4261337s-106.538667 22.7285337-143.2320003 59.4261337zm143.2320003-144.759467c-79.402667 0-151.402667 32.29696-203.562667 84.448l30.1653333 30.1568c44.416-44.4226133 105.7493337-71.9381333 173.3973337-71.9381333 67.626666 0 128.96 27.51552 173.397333 71.9402663l30.165333-30.1617063c-52.16-52.14848-124.16-84.4452267-203.562666-84.4452267z" fill-rule="evenodd" transform="translate(52.437333 106.666667)"/>
</svg>